<?xml version="1.0" encoding="utf-8" standalone="no"?>
<!DOCTYPE svg PUBLIC "-//W3C//DTD SVG 1.1//EN"
  "http://www.w3.org/Graphics/SVG/1.1/DTD/svg11.dtd">
<svg xmlns:xlink="http://www.w3.org/1999/xlink" width="991.955625pt" height="416.224744pt" viewBox="0 0 991.955625 416.224744" xmlns="http://www.w3.org/2000/svg" version="1.1">
 <metadata>
  <rdf:RDF xmlns:dc="http://purl.org/dc/elements/1.1/" xmlns:cc="http://creativecommons.org/ns#" xmlns:rdf="http://www.w3.org/1999/02/22-rdf-syntax-ns#">
   <cc:Work>
    <dc:type rdf:resource="http://purl.org/dc/dcmitype/StillImage"/>
    <dc:date>2026-03-19T11:27:18.945177</dc:date>
    <dc:format>image/svg+xml</dc:format>
    <dc:creator>
     <cc:Agent>
      <dc:title>Matplotlib v3.10.0, https://matplotlib.org/</dc:title>
     </cc:Agent>
    </dc:creator>
   </cc:Work>
  </rdf:RDF>
 </metadata>
 <defs>
  <style type="text/css">*{stroke-linejoin: round; stroke-linecap: butt}</style>
 </defs>
 <g id="figure_1">
  <g id="patch_1">
   <path d="M 0 416.224744 
L 991.955625 416.224744 
L 991.955625 0 
L 0 0 
z
" style="fill: #ffffff"/>
  </g>
  <g id="axes_1">
   <g id="patch_2">
    <path d="M 58.449375 306.440103 
L 984.755625 306.440103 
L 984.755625 7.2 
L 58.449375 7.2 
z
" style="fill: #ffffff"/>
   </g>
   <g id="patch_3">
    <path d="M 100.554205 269.03509 
L 138.831322 269.03509 
L 138.831322 164.799788 
L 100.554205 164.799788 
z
" clip-path="url(#pf6b36adc43)" style="fill: #4c72b0"/>
   </g>
   <g id="patch_4">
    <path d="M 209.917398 269.03509 
L 248.194516 269.03509 
L 248.194516 188.988363 
L 209.917398 188.988363 
z
" clip-path="url(#pf6b36adc43)" style="fill: #4c72b0"/>
   </g>
   <g id="patch_5">
    <path d="M 319.280592 269.03509 
L 357.55771 269.03509 
L 357.55771 145.349181 
L 319.280592 145.349181 
z
" clip-path="url(#pf6b36adc43)" style="fill: #4c72b0"/>
   </g>
   <g id="patch_6">
    <path d="M 428.643785 269.03509 
L 466.920903 269.03509 
L 466.920903 89.989762 
L 428.643785 89.989762 
z
" clip-path="url(#pf6b36adc43)" style="fill: #4c72b0"/>
   </g>
   <g id="patch_7">
    <path d="M 538.006979 269.03509 
L 576.284097 269.03509 
L 576.284097 185.995962 
L 538.006979 185.995962 
z
" clip-path="url(#pf6b36adc43)" style="fill: #4c72b0"/>
   </g>
   <g id="patch_8">
    <path d="M 647.370173 269.03509 
L 685.64729 269.03509 
L 685.64729 154.825117 
L 647.370173 154.825117 
z
" clip-path="url(#pf6b36adc43)" style="fill: #4c72b0"/>
   </g>
   <g id="patch_9">
    <path d="M 756.733366 269.03509 
L 795.010484 269.03509 
L 795.010484 194.973165 
L 756.733366 194.973165 
z
" clip-path="url(#pf6b36adc43)" style="fill: #4c72b0"/>
   </g>
   <g id="patch_10">
    <path d="M 866.09656 269.03509 
L 904.373678 269.03509 
L 904.373678 160.80992 
L 866.09656 160.80992 
z
" clip-path="url(#pf6b36adc43)" style="fill: #4c72b0"/>
   </g>
   <g id="patch_11">
    <path d="M 138.831322 269.03509 
L 177.10844 269.03509 
L 177.10844 57.322717 
L 138.831322 57.322717 
z
" clip-path="url(#pf6b36adc43)" style="fill: #dd8452"/>
   </g>
   <g id="patch_12">
    <path d="M 248.194516 269.03509 
L 286.471634 269.03509 
L 286.471634 26.650607 
L 248.194516 26.650607 
z
" clip-path="url(#pf6b36adc43)" style="fill: #dd8452"/>
   </g>
   <g id="patch_13">
    <path d="M 357.55771 269.03509 
L 395.834827 269.03509 
L 395.834827 43.108812 
L 357.55771 43.108812 
z
" clip-path="url(#pf6b36adc43)" style="fill: #dd8452"/>
   </g>
   <g id="patch_14">
    <path d="M 466.920903 269.03509 
L 505.198021 269.03509 
L 505.198021 30.889841 
L 466.920903 30.889841 
z
" clip-path="url(#pf6b36adc43)" style="fill: #dd8452"/>
   </g>
   <g id="patch_15">
    <path d="M 576.284097 269.03509 
L 614.561215 269.03509 
L 614.561215 20.167071 
L 576.284097 20.167071 
z
" clip-path="url(#pf6b36adc43)" style="fill: #dd8452"/>
   </g>
   <g id="patch_16">
    <path d="M 685.64729 269.03509 
L 723.924408 269.03509 
L 723.924408 80.513825 
L 685.64729 80.513825 
z
" clip-path="url(#pf6b36adc43)" style="fill: #dd8452"/>
   </g>
   <g id="patch_17">
    <path d="M 795.010484 269.03509 
L 833.287602 269.03509 
L 833.287602 52.335382 
L 795.010484 52.335382 
z
" clip-path="url(#pf6b36adc43)" style="fill: #dd8452"/>
   </g>
   <g id="patch_18">
    <path d="M 904.373678 269.03509 
L 942.650795 269.03509 
L 942.650795 44.355646 
L 904.373678 44.355646 
z
" clip-path="url(#pf6b36adc43)" style="fill: #dd8452"/>
   </g>
   <g id="matplotlib.axis_1">
    <g id="xtick_1">
     <g id="line2d_1">
      <defs>
       <path id="m5672a78791" d="M 0 0 
L 0 6 
" style="stroke: #000000; stroke-width: 1.2"/>
      </defs>
      <g>
       <use xlink:href="#m5672a78791" x="138.831322" y="306.440103" style="stroke: #000000; stroke-width: 1.2"/>
      </g>
     </g>
     <g id="text_1">
      <!-- Metagenomic -->
      <g transform="translate(68.125727 391.827466) rotate(-45) scale(0.14 -0.14)">
       <defs>
        <path id="DejaVuSerif-4d" d="M 353 0 
L 353 331 
L 947 331 
L 947 4331 
L 319 4331 
L 319 4666 
L 1678 4666 
L 3316 1344 
L 4953 4666 
L 6228 4666 
L 6228 4331 
L 5606 4331 
L 5606 331 
L 6203 331 
L 6203 0 
L 4378 0 
L 4378 331 
L 4972 331 
L 4972 3938 
L 3372 684 
L 2931 684 
L 1331 3938 
L 1331 331 
L 1925 331 
L 1925 0 
L 353 0 
z
" transform="scale(0.015625)"/>
        <path id="DejaVuSerif-65" d="M 3469 1600 
L 991 1600 
L 991 1575 
Q 991 903 1244 561 
Q 1497 219 1991 219 
Q 2369 219 2611 417 
Q 2853 616 2950 1006 
L 3413 1006 
Q 3275 459 2904 184 
Q 2534 -91 1931 -91 
Q 1203 -91 761 389 
Q 319 869 319 1663 
Q 319 2450 753 2931 
Q 1188 3413 1894 3413 
Q 2647 3413 3050 2948 
Q 3453 2484 3469 1600 
z
M 2791 1931 
Q 2772 2513 2545 2808 
Q 2319 3103 1894 3103 
Q 1497 3103 1269 2806 
Q 1041 2509 991 1931 
L 2791 1931 
z
" transform="scale(0.015625)"/>
        <path id="DejaVuSerif-74" d="M 691 2988 
L 184 2988 
L 184 3322 
L 691 3322 
L 691 4353 
L 1269 4353 
L 1269 3322 
L 2350 3322 
L 2350 2988 
L 1269 2988 
L 1269 878 
Q 1269 456 1350 337 
Q 1431 219 1650 219 
Q 1875 219 1978 351 
Q 2081 484 2088 781 
L 2522 781 
Q 2497 328 2275 118 
Q 2053 -91 1600 -91 
Q 1103 -91 897 129 
Q 691 350 691 878 
L 691 2988 
z
" transform="scale(0.015625)"/>
        <path id="DejaVuSerif-61" d="M 2547 1044 
L 2547 1747 
L 1806 1747 
Q 1378 1747 1168 1562 
Q 959 1378 959 997 
Q 959 650 1171 447 
Q 1384 244 1747 244 
Q 2106 244 2326 466 
Q 2547 688 2547 1044 
z
M 3122 2075 
L 3122 331 
L 3634 331 
L 3634 0 
L 2547 0 
L 2547 359 
Q 2356 128 2106 18 
Q 1856 -91 1522 -91 
Q 969 -91 644 203 
Q 319 497 319 997 
Q 319 1513 691 1797 
Q 1063 2081 1741 2081 
L 2547 2081 
L 2547 2309 
Q 2547 2688 2317 2895 
Q 2088 3103 1672 3103 
Q 1328 3103 1125 2947 
Q 922 2791 872 2484 
L 575 2484 
L 575 3156 
Q 875 3284 1158 3348 
Q 1441 3413 1709 3413 
Q 2400 3413 2761 3070 
Q 3122 2728 3122 2075 
z
" transform="scale(0.015625)"/>
        <path id="DejaVuSerif-67" d="M 3359 2988 
L 3359 72 
Q 3359 -644 2965 -1033 
Q 2572 -1422 1844 -1422 
Q 1516 -1422 1216 -1362 
Q 916 -1303 641 -1184 
L 641 -488 
L 941 -488 
Q 997 -813 1206 -963 
Q 1416 -1113 1806 -1113 
Q 2313 -1113 2548 -827 
Q 2784 -541 2784 72 
L 2784 519 
Q 2616 206 2355 57 
Q 2094 -91 1709 -91 
Q 1097 -91 708 395 
Q 319 881 319 1663 
Q 319 2444 706 2928 
Q 1094 3413 1709 3413 
Q 2094 3413 2355 3264 
Q 2616 3116 2784 2803 
L 2784 3322 
L 3909 3322 
L 3909 2988 
L 3359 2988 
z
M 2784 1825 
Q 2784 2422 2554 2737 
Q 2325 3053 1888 3053 
Q 1444 3053 1217 2703 
Q 991 2353 991 1663 
Q 991 975 1217 622 
Q 1444 269 1888 269 
Q 2325 269 2554 583 
Q 2784 897 2784 1497 
L 2784 1825 
z
" transform="scale(0.015625)"/>
        <path id="DejaVuSerif-6e" d="M 263 0 
L 263 331 
L 781 331 
L 781 2988 
L 231 2988 
L 231 3322 
L 1356 3322 
L 1356 2731 
Q 1516 3069 1770 3241 
Q 2025 3413 2363 3413 
Q 2913 3413 3172 3097 
Q 3431 2781 3431 2113 
L 3431 331 
L 3944 331 
L 3944 0 
L 2356 0 
L 2356 331 
L 2853 331 
L 2853 1931 
Q 2853 2541 2703 2767 
Q 2553 2994 2175 2994 
Q 1775 2994 1565 2701 
Q 1356 2409 1356 1850 
L 1356 331 
L 1856 331 
L 1856 0 
L 263 0 
z
" transform="scale(0.015625)"/>
        <path id="DejaVuSerif-6f" d="M 1925 219 
Q 2388 219 2623 584 
Q 2859 950 2859 1663 
Q 2859 2375 2623 2739 
Q 2388 3103 1925 3103 
Q 1463 3103 1227 2739 
Q 991 2375 991 1663 
Q 991 950 1228 584 
Q 1466 219 1925 219 
z
M 1925 -91 
Q 1200 -91 759 389 
Q 319 869 319 1663 
Q 319 2456 758 2934 
Q 1197 3413 1925 3413 
Q 2653 3413 3092 2934 
Q 3531 2456 3531 1663 
Q 3531 869 3092 389 
Q 2653 -91 1925 -91 
z
" transform="scale(0.015625)"/>
        <path id="DejaVuSerif-6d" d="M 3316 2675 
Q 3481 3041 3739 3227 
Q 3997 3413 4341 3413 
Q 4863 3413 5119 3089 
Q 5375 2766 5375 2113 
L 5375 331 
L 5894 331 
L 5894 0 
L 4300 0 
L 4300 331 
L 4800 331 
L 4800 2047 
Q 4800 2556 4650 2772 
Q 4500 2988 4153 2988 
Q 3769 2988 3567 2697 
Q 3366 2406 3366 1850 
L 3366 331 
L 3866 331 
L 3866 0 
L 2291 0 
L 2291 331 
L 2791 331 
L 2791 2069 
Q 2791 2566 2641 2777 
Q 2491 2988 2144 2988 
Q 1759 2988 1557 2697 
Q 1356 2406 1356 1850 
L 1356 331 
L 1856 331 
L 1856 0 
L 263 0 
L 263 331 
L 781 331 
L 781 2994 
L 231 2994 
L 231 3322 
L 1356 3322 
L 1356 2731 
Q 1516 3063 1762 3238 
Q 2009 3413 2322 3413 
Q 2709 3413 2968 3220 
Q 3228 3028 3316 2675 
z
" transform="scale(0.015625)"/>
        <path id="DejaVuSerif-69" d="M 622 4353 
Q 622 4497 726 4603 
Q 831 4709 978 4709 
Q 1122 4709 1226 4603 
Q 1331 4497 1331 4353 
Q 1331 4206 1228 4103 
Q 1125 4000 978 4000 
Q 831 4000 726 4103 
Q 622 4206 622 4353 
z
M 1356 331 
L 1900 331 
L 1900 0 
L 231 0 
L 231 331 
L 781 331 
L 781 2988 
L 231 2988 
L 231 3322 
L 1356 3322 
L 1356 331 
z
" transform="scale(0.015625)"/>
        <path id="DejaVuSerif-63" d="M 3291 997 
Q 3169 466 2822 187 
Q 2475 -91 1925 -91 
Q 1200 -91 759 389 
Q 319 869 319 1663 
Q 319 2459 759 2936 
Q 1200 3413 1925 3413 
Q 2241 3413 2553 3339 
Q 2866 3266 3181 3116 
L 3181 2266 
L 2847 2266 
Q 2781 2703 2561 2903 
Q 2341 3103 1931 3103 
Q 1466 3103 1228 2742 
Q 991 2381 991 1663 
Q 991 944 1227 581 
Q 1463 219 1931 219 
Q 2303 219 2525 412 
Q 2747 606 2828 997 
L 3291 997 
z
" transform="scale(0.015625)"/>
       </defs>
       <use xlink:href="#DejaVuSerif-4d"/>
       <use xlink:href="#DejaVuSerif-65" transform="translate(102.392578 0)"/>
       <use xlink:href="#DejaVuSerif-74" transform="translate(161.572266 0)"/>
       <use xlink:href="#DejaVuSerif-61" transform="translate(201.757812 0)"/>
       <use xlink:href="#DejaVuSerif-67" transform="translate(261.376953 0)"/>
       <use xlink:href="#DejaVuSerif-65" transform="translate(325.390625 0)"/>
       <use xlink:href="#DejaVuSerif-6e" transform="translate(384.570312 0)"/>
       <use xlink:href="#DejaVuSerif-6f" transform="translate(448.974609 0)"/>
       <use xlink:href="#DejaVuSerif-6d" transform="translate(509.179688 0)"/>
       <use xlink:href="#DejaVuSerif-69" transform="translate(604.003906 0)"/>
       <use xlink:href="#DejaVuSerif-63" transform="translate(635.986328 0)"/>
      </g>
     </g>
    </g>
    <g id="xtick_2">
     <g id="line2d_2">
      <g>
       <use xlink:href="#m5672a78791" x="248.194516" y="306.440103" style="stroke: #000000; stroke-width: 1.2"/>
      </g>
     </g>
     <g id="text_2">
      <!-- Phylogeny -->
      <g transform="translate(194.073668 375.383476) rotate(-45) scale(0.14 -0.14)">
       <defs>
        <path id="DejaVuSerif-50" d="M 1581 2375 
L 2406 2375 
Q 2872 2375 3115 2626 
Q 3359 2878 3359 3353 
Q 3359 3831 3115 4081 
Q 2872 4331 2406 4331 
L 1581 4331 
L 1581 2375 
z
M 353 0 
L 353 331 
L 947 331 
L 947 4331 
L 353 4331 
L 353 4666 
L 2559 4666 
Q 3259 4666 3668 4311 
Q 4078 3956 4078 3353 
Q 4078 2753 3668 2397 
Q 3259 2041 2559 2041 
L 1581 2041 
L 1581 331 
L 2303 331 
L 2303 0 
L 353 0 
z
" transform="scale(0.015625)"/>
        <path id="DejaVuSerif-68" d="M 263 0 
L 263 331 
L 781 331 
L 781 4531 
L 231 4531 
L 231 4863 
L 1356 4863 
L 1356 2731 
Q 1516 3069 1770 3241 
Q 2025 3413 2363 3413 
Q 2913 3413 3172 3097 
Q 3431 2781 3431 2113 
L 3431 331 
L 3944 331 
L 3944 0 
L 2356 0 
L 2356 331 
L 2853 331 
L 2853 1931 
Q 2853 2541 2704 2764 
Q 2556 2988 2175 2988 
Q 1775 2988 1565 2697 
Q 1356 2406 1356 1850 
L 1356 331 
L 1856 331 
L 1856 0 
L 263 0 
z
" transform="scale(0.015625)"/>
        <path id="DejaVuSerif-79" d="M 1381 -609 
L 1600 -56 
L 359 2988 
L -19 2988 
L -19 3322 
L 1509 3322 
L 1509 2988 
L 978 2988 
L 1913 703 
L 2847 2988 
L 2350 2988 
L 2350 3322 
L 3597 3322 
L 3597 2988 
L 3225 2988 
L 1703 -750 
Q 1547 -1138 1356 -1280 
Q 1166 -1422 819 -1422 
Q 672 -1422 517 -1397 
Q 363 -1372 206 -1325 
L 206 -691 
L 500 -691 
Q 519 -903 608 -995 
Q 697 -1088 884 -1088 
Q 1056 -1088 1161 -992 
Q 1266 -897 1381 -609 
z
" transform="scale(0.015625)"/>
        <path id="DejaVuSerif-6c" d="M 1313 331 
L 1856 331 
L 1856 0 
L 184 0 
L 184 331 
L 738 331 
L 738 4531 
L 184 4531 
L 184 4863 
L 1313 4863 
L 1313 331 
z
" transform="scale(0.015625)"/>
       </defs>
       <use xlink:href="#DejaVuSerif-50"/>
       <use xlink:href="#DejaVuSerif-68" transform="translate(67.285156 0)"/>
       <use xlink:href="#DejaVuSerif-79" transform="translate(131.689453 0)"/>
       <use xlink:href="#DejaVuSerif-6c" transform="translate(188.183594 0)"/>
       <use xlink:href="#DejaVuSerif-6f" transform="translate(220.166016 0)"/>
       <use xlink:href="#DejaVuSerif-67" transform="translate(280.371094 0)"/>
       <use xlink:href="#DejaVuSerif-65" transform="translate(344.384766 0)"/>
       <use xlink:href="#DejaVuSerif-6e" transform="translate(403.564453 0)"/>
       <use xlink:href="#DejaVuSerif-79" transform="translate(467.96875 0)"/>
      </g>
     </g>
    </g>
    <g id="xtick_3">
     <g id="line2d_3">
      <g>
       <use xlink:href="#m5672a78791" x="357.55771" y="306.440103" style="stroke: #000000; stroke-width: 1.2"/>
      </g>
     </g>
     <g id="text_3">
      <!-- Single_Cell -->
      <g transform="translate(298.821222 379.864545) rotate(-45) scale(0.14 -0.14)">
       <defs>
        <path id="DejaVuSerif-53" d="M 594 225 
L 594 1288 
L 953 1284 
Q 969 753 1261 498 
Q 1553 244 2150 244 
Q 2706 244 2998 464 
Q 3291 684 3291 1106 
Q 3291 1444 3114 1625 
Q 2938 1806 2369 1978 
L 1753 2163 
Q 1084 2366 811 2669 
Q 538 2972 538 3500 
Q 538 4094 959 4422 
Q 1381 4750 2144 4750 
Q 2469 4750 2856 4679 
Q 3244 4609 3681 4475 
L 3681 3481 
L 3328 3481 
Q 3275 3975 2998 4195 
Q 2722 4416 2156 4416 
Q 1663 4416 1405 4214 
Q 1147 4013 1147 3628 
Q 1147 3294 1340 3103 
Q 1534 2913 2163 2725 
L 2741 2553 
Q 3375 2363 3645 2067 
Q 3916 1772 3916 1275 
Q 3916 597 3481 253 
Q 3047 -91 2188 -91 
Q 1803 -91 1404 -12 
Q 1006 66 594 225 
z
" transform="scale(0.015625)"/>
        <path id="DejaVuSerif-5f" d="M 3200 -1259 
L 3200 -1509 
L 0 -1509 
L 0 -1259 
L 3200 -1259 
z
" transform="scale(0.015625)"/>
        <path id="DejaVuSerif-43" d="M 4513 1234 
Q 4306 581 3820 245 
Q 3334 -91 2591 -91 
Q 2134 -91 1743 65 
Q 1353 222 1050 525 
Q 700 875 529 1320 
Q 359 1766 359 2328 
Q 359 3416 987 4083 
Q 1616 4750 2644 4750 
Q 3025 4750 3456 4650 
Q 3888 4550 4384 4347 
L 4384 3272 
L 4031 3272 
Q 3916 3859 3567 4137 
Q 3219 4416 2591 4416 
Q 1844 4416 1459 3886 
Q 1075 3356 1075 2328 
Q 1075 1303 1459 773 
Q 1844 244 2591 244 
Q 3113 244 3450 492 
Q 3788 741 3938 1234 
L 4513 1234 
z
" transform="scale(0.015625)"/>
       </defs>
       <use xlink:href="#DejaVuSerif-53"/>
       <use xlink:href="#DejaVuSerif-69" transform="translate(68.505859 0)"/>
       <use xlink:href="#DejaVuSerif-6e" transform="translate(100.488281 0)"/>
       <use xlink:href="#DejaVuSerif-67" transform="translate(164.892578 0)"/>
       <use xlink:href="#DejaVuSerif-6c" transform="translate(228.90625 0)"/>
       <use xlink:href="#DejaVuSerif-65" transform="translate(260.888672 0)"/>
       <use xlink:href="#DejaVuSerif-5f" transform="translate(320.068359 0)"/>
       <use xlink:href="#DejaVuSerif-43" transform="translate(370.068359 0)"/>
       <use xlink:href="#DejaVuSerif-65" transform="translate(446.582031 0)"/>
       <use xlink:href="#DejaVuSerif-6c" transform="translate(505.761719 0)"/>
       <use xlink:href="#DejaVuSerif-6c" transform="translate(537.744141 0)"/>
      </g>
     </g>
    </g>
    <g id="xtick_4">
     <g id="line2d_4">
      <g>
       <use xlink:href="#m5672a78791" x="466.920903" y="306.440103" style="stroke: #000000; stroke-width: 1.2"/>
      </g>
     </g>
     <g id="text_4">
      <!-- Systems_biology -->
      <g transform="translate(381.358331 406.690629) rotate(-45) scale(0.14 -0.14)">
       <defs>
        <path id="DejaVuSerif-73" d="M 359 184 
L 359 959 
L 691 959 
Q 703 588 923 403 
Q 1144 219 1575 219 
Q 1963 219 2166 364 
Q 2369 509 2369 788 
Q 2369 1006 2220 1140 
Q 2072 1275 1594 1428 
L 1178 1569 
Q 750 1706 558 1912 
Q 366 2119 366 2438 
Q 366 2894 700 3153 
Q 1034 3413 1625 3413 
Q 1888 3413 2178 3344 
Q 2469 3275 2778 3144 
L 2778 2419 
L 2447 2419 
Q 2434 2741 2221 2922 
Q 2009 3103 1644 3103 
Q 1281 3103 1095 2975 
Q 909 2847 909 2591 
Q 909 2381 1050 2254 
Q 1191 2128 1613 1997 
L 2069 1856 
Q 2541 1709 2748 1489 
Q 2956 1269 2956 922 
Q 2956 450 2595 179 
Q 2234 -91 1600 -91 
Q 1278 -91 972 -22 
Q 666 47 359 184 
z
" transform="scale(0.015625)"/>
        <path id="DejaVuSerif-62" d="M 738 331 
L 738 4531 
L 184 4531 
L 184 4863 
L 1313 4863 
L 1313 2803 
Q 1481 3116 1742 3264 
Q 2003 3413 2388 3413 
Q 3000 3413 3387 2928 
Q 3775 2444 3775 1663 
Q 3775 881 3387 395 
Q 3000 -91 2388 -91 
Q 2003 -91 1742 57 
Q 1481 206 1313 519 
L 1313 0 
L 184 0 
L 184 331 
L 738 331 
z
M 1313 1497 
Q 1313 897 1542 583 
Q 1772 269 2209 269 
Q 2650 269 2876 622 
Q 3103 975 3103 1663 
Q 3103 2353 2876 2703 
Q 2650 3053 2209 3053 
Q 1772 3053 1542 2737 
Q 1313 2422 1313 1825 
L 1313 1497 
z
" transform="scale(0.015625)"/>
       </defs>
       <use xlink:href="#DejaVuSerif-53"/>
       <use xlink:href="#DejaVuSerif-79" transform="translate(68.505859 0)"/>
       <use xlink:href="#DejaVuSerif-73" transform="translate(125 0)"/>
       <use xlink:href="#DejaVuSerif-74" transform="translate(176.318359 0)"/>
       <use xlink:href="#DejaVuSerif-65" transform="translate(216.503906 0)"/>
       <use xlink:href="#DejaVuSerif-6d" transform="translate(275.683594 0)"/>
       <use xlink:href="#DejaVuSerif-73" transform="translate(370.507812 0)"/>
       <use xlink:href="#DejaVuSerif-5f" transform="translate(421.826172 0)"/>
       <use xlink:href="#DejaVuSerif-62" transform="translate(471.826172 0)"/>
       <use xlink:href="#DejaVuSerif-69" transform="translate(535.839844 0)"/>
       <use xlink:href="#DejaVuSerif-6f" transform="translate(567.822266 0)"/>
       <use xlink:href="#DejaVuSerif-6c" transform="translate(628.027344 0)"/>
       <use xlink:href="#DejaVuSerif-6f" transform="translate(660.009766 0)"/>
       <use xlink:href="#DejaVuSerif-67" transform="translate(720.214844 0)"/>
       <use xlink:href="#DejaVuSerif-79" transform="translate(784.228516 0)"/>
      </g>
     </g>
    </g>
    <g id="xtick_5">
     <g id="line2d_5">
      <g>
       <use xlink:href="#m5672a78791" x="576.284097" y="306.440103" style="stroke: #000000; stroke-width: 1.2"/>
      </g>
     </g>
     <g id="text_5">
      <!-- Neuroimaging -->
      <g transform="translate(501.82288 395.583086) rotate(-45) scale(0.14 -0.14)">
       <defs>
        <path id="DejaVuSerif-4e" d="M 313 0 
L 313 331 
L 941 331 
L 941 4331 
L 313 4331 
L 313 4666 
L 1509 4666 
L 4306 984 
L 4306 4331 
L 3681 4331 
L 3681 4666 
L 5319 4666 
L 5319 4331 
L 4691 4331 
L 4691 -91 
L 4313 -91 
L 1325 3841 
L 1325 331 
L 1953 331 
L 1953 0 
L 313 0 
z
" transform="scale(0.015625)"/>
        <path id="DejaVuSerif-75" d="M 2266 3322 
L 3341 3322 
L 3341 331 
L 3884 331 
L 3884 0 
L 2766 0 
L 2766 588 
Q 2606 256 2353 82 
Q 2100 -91 1766 -91 
Q 1213 -91 952 223 
Q 691 538 691 1209 
L 691 2988 
L 172 2988 
L 172 3322 
L 1269 3322 
L 1269 1388 
Q 1269 781 1417 556 
Q 1566 331 1947 331 
Q 2347 331 2556 625 
Q 2766 919 2766 1478 
L 2766 2988 
L 2266 2988 
L 2266 3322 
z
" transform="scale(0.015625)"/>
        <path id="DejaVuSerif-72" d="M 3059 3328 
L 3059 2497 
L 2728 2497 
Q 2713 2744 2591 2866 
Q 2469 2988 2234 2988 
Q 1809 2988 1582 2694 
Q 1356 2400 1356 1850 
L 1356 331 
L 2022 331 
L 2022 0 
L 263 0 
L 263 331 
L 781 331 
L 781 2994 
L 231 2994 
L 231 3322 
L 1356 3322 
L 1356 2731 
Q 1525 3078 1790 3245 
Q 2056 3413 2438 3413 
Q 2578 3413 2733 3391 
Q 2888 3369 3059 3328 
z
" transform="scale(0.015625)"/>
       </defs>
       <use xlink:href="#DejaVuSerif-4e"/>
       <use xlink:href="#DejaVuSerif-65" transform="translate(87.5 0)"/>
       <use xlink:href="#DejaVuSerif-75" transform="translate(146.679688 0)"/>
       <use xlink:href="#DejaVuSerif-72" transform="translate(211.083984 0)"/>
       <use xlink:href="#DejaVuSerif-6f" transform="translate(258.886719 0)"/>
       <use xlink:href="#DejaVuSerif-69" transform="translate(319.091797 0)"/>
       <use xlink:href="#DejaVuSerif-6d" transform="translate(351.074219 0)"/>
       <use xlink:href="#DejaVuSerif-61" transform="translate(445.898438 0)"/>
       <use xlink:href="#DejaVuSerif-67" transform="translate(505.517578 0)"/>
       <use xlink:href="#DejaVuSerif-69" transform="translate(569.53125 0)"/>
       <use xlink:href="#DejaVuSerif-6e" transform="translate(601.513672 0)"/>
       <use xlink:href="#DejaVuSerif-67" transform="translate(665.917969 0)"/>
      </g>
     </g>
    </g>
    <g id="xtick_6">
     <g id="line2d_6">
      <g>
       <use xlink:href="#m5672a78791" x="685.64729" y="306.440103" style="stroke: #000000; stroke-width: 1.2"/>
      </g>
     </g>
     <g id="text_6">
      <!-- Genetic_variant -->
      <g transform="translate(604.021314 402.579245) rotate(-45) scale(0.14 -0.14)">
       <defs>
        <path id="DejaVuSerif-47" d="M 4097 3272 
Q 3988 3856 3641 4136 
Q 3294 4416 2675 4416 
Q 1869 4416 1472 3897 
Q 1075 3378 1075 2328 
Q 1075 1300 1484 772 
Q 1894 244 2688 244 
Q 3041 244 3362 331 
Q 3684 419 3975 594 
L 3975 1797 
L 3097 1797 
L 3097 2131 
L 4609 2131 
L 4609 391 
Q 4194 150 3714 29 
Q 3234 -91 2688 -91 
Q 1631 -91 995 570 
Q 359 1231 359 2328 
Q 359 3434 996 4092 
Q 1634 4750 2713 4750 
Q 3113 4750 3539 4658 
Q 3966 4566 4447 4378 
L 4447 3272 
L 4097 3272 
z
" transform="scale(0.015625)"/>
        <path id="DejaVuSerif-76" d="M 1581 0 
L 359 2988 
L -19 2988 
L -19 3322 
L 1509 3322 
L 1509 2988 
L 978 2988 
L 1913 703 
L 2847 2988 
L 2350 2988 
L 2350 3322 
L 3597 3322 
L 3597 2988 
L 3225 2988 
L 2003 0 
L 1581 0 
z
" transform="scale(0.015625)"/>
       </defs>
       <use xlink:href="#DejaVuSerif-47"/>
       <use xlink:href="#DejaVuSerif-65" transform="translate(79.882812 0)"/>
       <use xlink:href="#DejaVuSerif-6e" transform="translate(139.0625 0)"/>
       <use xlink:href="#DejaVuSerif-65" transform="translate(203.466797 0)"/>
       <use xlink:href="#DejaVuSerif-74" transform="translate(262.646484 0)"/>
       <use xlink:href="#DejaVuSerif-69" transform="translate(302.832031 0)"/>
       <use xlink:href="#DejaVuSerif-63" transform="translate(334.814453 0)"/>
       <use xlink:href="#DejaVuSerif-5f" transform="translate(390.820312 0)"/>
       <use xlink:href="#DejaVuSerif-76" transform="translate(440.820312 0)"/>
       <use xlink:href="#DejaVuSerif-61" transform="translate(497.314453 0)"/>
       <use xlink:href="#DejaVuSerif-72" transform="translate(556.933594 0)"/>
       <use xlink:href="#DejaVuSerif-69" transform="translate(604.736328 0)"/>
       <use xlink:href="#DejaVuSerif-61" transform="translate(636.71875 0)"/>
       <use xlink:href="#DejaVuSerif-6e" transform="translate(696.337891 0)"/>
       <use xlink:href="#DejaVuSerif-74" transform="translate(760.742188 0)"/>
      </g>
     </g>
    </g>
    <g id="xtick_7">
     <g id="line2d_7">
      <g>
       <use xlink:href="#m5672a78791" x="795.010484" y="306.440103" style="stroke: #000000; stroke-width: 1.2"/>
      </g>
     </g>
     <g id="text_7">
      <!-- Microscopy -->
      <g transform="translate(734.759683 381.372671) rotate(-45) scale(0.14 -0.14)">
       <defs>
        <path id="DejaVuSerif-70" d="M 1313 1825 
L 1313 1497 
Q 1313 897 1542 583 
Q 1772 269 2209 269 
Q 2650 269 2876 622 
Q 3103 975 3103 1663 
Q 3103 2353 2876 2703 
Q 2650 3053 2209 3053 
Q 1772 3053 1542 2737 
Q 1313 2422 1313 1825 
z
M 738 2988 
L 184 2988 
L 184 3322 
L 1313 3322 
L 1313 2803 
Q 1481 3116 1742 3264 
Q 2003 3413 2388 3413 
Q 3000 3413 3387 2928 
Q 3775 2444 3775 1663 
Q 3775 881 3387 395 
Q 3000 -91 2388 -91 
Q 2003 -91 1742 57 
Q 1481 206 1313 519 
L 1313 -997 
L 1856 -997 
L 1856 -1331 
L 184 -1331 
L 184 -997 
L 738 -997 
L 738 2988 
z
" transform="scale(0.015625)"/>
       </defs>
       <use xlink:href="#DejaVuSerif-4d"/>
       <use xlink:href="#DejaVuSerif-69" transform="translate(102.392578 0)"/>
       <use xlink:href="#DejaVuSerif-63" transform="translate(134.375 0)"/>
       <use xlink:href="#DejaVuSerif-72" transform="translate(190.380859 0)"/>
       <use xlink:href="#DejaVuSerif-6f" transform="translate(238.183594 0)"/>
       <use xlink:href="#DejaVuSerif-73" transform="translate(298.388672 0)"/>
       <use xlink:href="#DejaVuSerif-63" transform="translate(349.707031 0)"/>
       <use xlink:href="#DejaVuSerif-6f" transform="translate(405.712891 0)"/>
       <use xlink:href="#DejaVuSerif-70" transform="translate(465.917969 0)"/>
       <use xlink:href="#DejaVuSerif-79" transform="translate(529.931641 0)"/>
      </g>
     </g>
    </g>
    <g id="xtick_8">
     <g id="line2d_8">
      <g>
       <use xlink:href="#m5672a78791" x="904.373678" y="306.440103" style="stroke: #000000; stroke-width: 1.2"/>
      </g>
     </g>
     <g id="text_8">
      <!-- Overall mean -->
      <g transform="translate(835.108149 390.668915) rotate(-45) scale(0.14 -0.14)">
       <defs>
        <path id="DejaVuSerif-4f" d="M 2625 244 
Q 3391 244 3781 770 
Q 4172 1297 4172 2328 
Q 4172 3363 3781 3889 
Q 3391 4416 2625 4416 
Q 1856 4416 1465 3889 
Q 1075 3363 1075 2328 
Q 1075 1297 1465 770 
Q 1856 244 2625 244 
z
M 2625 -91 
Q 2150 -91 1751 65 
Q 1353 222 1050 525 
Q 700 875 529 1319 
Q 359 1763 359 2328 
Q 359 2894 529 3339 
Q 700 3784 1050 4134 
Q 1356 4441 1750 4595 
Q 2144 4750 2625 4750 
Q 3641 4750 4266 4084 
Q 4891 3419 4891 2328 
Q 4891 1769 4719 1320 
Q 4547 872 4197 525 
Q 3891 219 3497 64 
Q 3103 -91 2625 -91 
z
" transform="scale(0.015625)"/>
        <path id="DejaVuSerif-20" transform="scale(0.015625)"/>
       </defs>
       <use xlink:href="#DejaVuSerif-4f"/>
       <use xlink:href="#DejaVuSerif-76" transform="translate(81.982422 0)"/>
       <use xlink:href="#DejaVuSerif-65" transform="translate(138.476562 0)"/>
       <use xlink:href="#DejaVuSerif-72" transform="translate(197.65625 0)"/>
       <use xlink:href="#DejaVuSerif-61" transform="translate(245.458984 0)"/>
       <use xlink:href="#DejaVuSerif-6c" transform="translate(305.078125 0)"/>
       <use xlink:href="#DejaVuSerif-6c" transform="translate(337.060547 0)"/>
       <use xlink:href="#DejaVuSerif-20" transform="translate(369.042969 0)"/>
       <use xlink:href="#DejaVuSerif-6d" transform="translate(400.830078 0)"/>
       <use xlink:href="#DejaVuSerif-65" transform="translate(495.654297 0)"/>
       <use xlink:href="#DejaVuSerif-61" transform="translate(554.833984 0)"/>
       <use xlink:href="#DejaVuSerif-6e" transform="translate(614.453125 0)"/>
      </g>
     </g>
    </g>
   </g>
   <g id="matplotlib.axis_2">
    <g id="ytick_1">
     <g id="line2d_9">
      <path d="M 58.449375 269.03509 
L 984.755625 269.03509 
" clip-path="url(#pf6b36adc43)" style="fill: none; stroke-dasharray: 2.96,1.28; stroke-dashoffset: 0; stroke: #b0b0b0; stroke-opacity: 0.3; stroke-width: 0.8"/>
     </g>
     <g id="line2d_10">
      <defs>
       <path id="m3a517d4527" d="M 0 0 
L -6 0 
" style="stroke: #000000; stroke-width: 1.2"/>
      </defs>
      <g>
       <use xlink:href="#m3a517d4527" x="58.449375" y="269.03509" style="stroke: #000000; stroke-width: 1.2"/>
      </g>
     </g>
     <g id="text_9">
      <!-- 0.0 -->
      <g transform="translate(26.685 274.353996) scale(0.14 -0.14)">
       <defs>
        <path id="DejaVuSerif-30" d="M 2034 219 
Q 2513 219 2750 744 
Q 2988 1269 2988 2328 
Q 2988 3391 2750 3916 
Q 2513 4441 2034 4441 
Q 1556 4441 1318 3916 
Q 1081 3391 1081 2328 
Q 1081 1269 1318 744 
Q 1556 219 2034 219 
z
M 2034 -91 
Q 1275 -91 848 546 
Q 422 1184 422 2328 
Q 422 3475 848 4112 
Q 1275 4750 2034 4750 
Q 2797 4750 3222 4112 
Q 3647 3475 3647 2328 
Q 3647 1184 3222 546 
Q 2797 -91 2034 -91 
z
" transform="scale(0.015625)"/>
        <path id="DejaVuSerif-2e" d="M 603 325 
Q 603 500 722 622 
Q 841 744 1019 744 
Q 1191 744 1312 622 
Q 1434 500 1434 325 
Q 1434 153 1312 31 
Q 1191 -91 1019 -91 
Q 841 -91 722 29 
Q 603 150 603 325 
z
" transform="scale(0.015625)"/>
       </defs>
       <use xlink:href="#DejaVuSerif-30"/>
       <use xlink:href="#DejaVuSerif-2e" transform="translate(63.623047 0)"/>
       <use xlink:href="#DejaVuSerif-30" transform="translate(95.410156 0)"/>
      </g>
     </g>
    </g>
    <g id="ytick_2">
     <g id="line2d_11">
      <path d="M 58.449375 219.16174 
L 984.755625 219.16174 
" clip-path="url(#pf6b36adc43)" style="fill: none; stroke-dasharray: 2.96,1.28; stroke-dashoffset: 0; stroke: #b0b0b0; stroke-opacity: 0.3; stroke-width: 0.8"/>
     </g>
     <g id="line2d_12">
      <g>
       <use xlink:href="#m3a517d4527" x="58.449375" y="219.16174" style="stroke: #000000; stroke-width: 1.2"/>
      </g>
     </g>
     <g id="text_10">
      <!-- 0.2 -->
      <g transform="translate(26.685 224.480646) scale(0.14 -0.14)">
       <defs>
        <path id="DejaVuSerif-32" d="M 819 3553 
L 469 3553 
L 469 4384 
Q 803 4563 1142 4656 
Q 1481 4750 1806 4750 
Q 2534 4750 2956 4397 
Q 3378 4044 3378 3438 
Q 3378 2753 2422 1800 
Q 2347 1728 2309 1691 
L 1131 513 
L 3078 513 
L 3078 1088 
L 3444 1088 
L 3444 0 
L 434 0 
L 434 341 
L 1850 1753 
Q 2319 2222 2519 2614 
Q 2719 3006 2719 3438 
Q 2719 3909 2473 4175 
Q 2228 4441 1797 4441 
Q 1350 4441 1106 4219 
Q 863 3997 819 3553 
z
" transform="scale(0.015625)"/>
       </defs>
       <use xlink:href="#DejaVuSerif-30"/>
       <use xlink:href="#DejaVuSerif-2e" transform="translate(63.623047 0)"/>
       <use xlink:href="#DejaVuSerif-32" transform="translate(95.410156 0)"/>
      </g>
     </g>
    </g>
    <g id="ytick_3">
     <g id="line2d_13">
      <path d="M 58.449375 169.288389 
L 984.755625 169.288389 
" clip-path="url(#pf6b36adc43)" style="fill: none; stroke-dasharray: 2.96,1.28; stroke-dashoffset: 0; stroke: #b0b0b0; stroke-opacity: 0.3; stroke-width: 0.8"/>
     </g>
     <g id="line2d_14">
      <g>
       <use xlink:href="#m3a517d4527" x="58.449375" y="169.288389" style="stroke: #000000; stroke-width: 1.2"/>
      </g>
     </g>
     <g id="text_11">
      <!-- 0.4 -->
      <g transform="translate(26.685 174.607295) scale(0.14 -0.14)">
       <defs>
        <path id="DejaVuSerif-34" d="M 2234 1581 
L 2234 4063 
L 641 1581 
L 2234 1581 
z
M 3609 0 
L 1484 0 
L 1484 331 
L 2234 331 
L 2234 1247 
L 197 1247 
L 197 1588 
L 2241 4750 
L 2859 4750 
L 2859 1581 
L 3750 1581 
L 3750 1247 
L 2859 1247 
L 2859 331 
L 3609 331 
L 3609 0 
z
" transform="scale(0.015625)"/>
       </defs>
       <use xlink:href="#DejaVuSerif-30"/>
       <use xlink:href="#DejaVuSerif-2e" transform="translate(63.623047 0)"/>
       <use xlink:href="#DejaVuSerif-34" transform="translate(95.410156 0)"/>
      </g>
     </g>
    </g>
    <g id="ytick_4">
     <g id="line2d_15">
      <path d="M 58.449375 119.415039 
L 984.755625 119.415039 
" clip-path="url(#pf6b36adc43)" style="fill: none; stroke-dasharray: 2.96,1.28; stroke-dashoffset: 0; stroke: #b0b0b0; stroke-opacity: 0.3; stroke-width: 0.8"/>
     </g>
     <g id="line2d_16">
      <g>
       <use xlink:href="#m3a517d4527" x="58.449375" y="119.415039" style="stroke: #000000; stroke-width: 1.2"/>
      </g>
     </g>
     <g id="text_12">
      <!-- 0.6 -->
      <g transform="translate(26.685 124.733945) scale(0.14 -0.14)">
       <defs>
        <path id="DejaVuSerif-36" d="M 2094 219 
Q 2534 219 2771 542 
Q 3009 866 3009 1472 
Q 3009 2078 2771 2401 
Q 2534 2725 2094 2725 
Q 1647 2725 1412 2412 
Q 1178 2100 1178 1509 
Q 1178 888 1415 553 
Q 1653 219 2094 219 
z
M 1075 2569 
Q 1288 2803 1556 2918 
Q 1825 3034 2163 3034 
Q 2859 3034 3264 2615 
Q 3669 2197 3669 1472 
Q 3669 763 3233 336 
Q 2797 -91 2069 -91 
Q 1278 -91 853 498 
Q 428 1088 428 2181 
Q 428 3406 931 4078 
Q 1434 4750 2350 4750 
Q 2597 4750 2869 4703 
Q 3141 4656 3425 4563 
L 3425 3794 
L 3072 3794 
Q 3034 4109 2831 4275 
Q 2628 4441 2284 4441 
Q 1678 4441 1381 3981 
Q 1084 3522 1075 2569 
z
" transform="scale(0.015625)"/>
       </defs>
       <use xlink:href="#DejaVuSerif-30"/>
       <use xlink:href="#DejaVuSerif-2e" transform="translate(63.623047 0)"/>
       <use xlink:href="#DejaVuSerif-36" transform="translate(95.410156 0)"/>
      </g>
     </g>
    </g>
    <g id="ytick_5">
     <g id="line2d_17">
      <path d="M 58.449375 69.541688 
L 984.755625 69.541688 
" clip-path="url(#pf6b36adc43)" style="fill: none; stroke-dasharray: 2.96,1.28; stroke-dashoffset: 0; stroke: #b0b0b0; stroke-opacity: 0.3; stroke-width: 0.8"/>
     </g>
     <g id="line2d_18">
      <g>
       <use xlink:href="#m3a517d4527" x="58.449375" y="69.541688" style="stroke: #000000; stroke-width: 1.2"/>
      </g>
     </g>
     <g id="text_13">
      <!-- 0.8 -->
      <g transform="translate(26.685 74.860594) scale(0.14 -0.14)">
       <defs>
        <path id="DejaVuSerif-38" d="M 2981 1275 
Q 2981 1775 2732 2051 
Q 2484 2328 2034 2328 
Q 1584 2328 1336 2051 
Q 1088 1775 1088 1275 
Q 1088 772 1336 495 
Q 1584 219 2034 219 
Q 2484 219 2732 495 
Q 2981 772 2981 1275 
z
M 2853 3541 
Q 2853 3966 2637 4203 
Q 2422 4441 2034 4441 
Q 1650 4441 1433 4203 
Q 1216 3966 1216 3541 
Q 1216 3113 1433 2875 
Q 1650 2638 2034 2638 
Q 2422 2638 2637 2875 
Q 2853 3113 2853 3541 
z
M 2516 2484 
Q 3047 2413 3344 2092 
Q 3641 1772 3641 1275 
Q 3641 619 3225 264 
Q 2809 -91 2034 -91 
Q 1263 -91 845 264 
Q 428 619 428 1275 
Q 428 1772 725 2092 
Q 1022 2413 1556 2484 
Q 1084 2569 832 2842 
Q 581 3116 581 3541 
Q 581 4103 968 4426 
Q 1356 4750 2034 4750 
Q 2713 4750 3100 4426 
Q 3488 4103 3488 3541 
Q 3488 3116 3236 2842 
Q 2984 2569 2516 2484 
z
" transform="scale(0.015625)"/>
       </defs>
       <use xlink:href="#DejaVuSerif-30"/>
       <use xlink:href="#DejaVuSerif-2e" transform="translate(63.623047 0)"/>
       <use xlink:href="#DejaVuSerif-38" transform="translate(95.410156 0)"/>
      </g>
     </g>
    </g>
    <g id="ytick_6">
     <g id="line2d_19">
      <path d="M 58.449375 19.668338 
L 984.755625 19.668338 
" clip-path="url(#pf6b36adc43)" style="fill: none; stroke-dasharray: 2.96,1.28; stroke-dashoffset: 0; stroke: #b0b0b0; stroke-opacity: 0.3; stroke-width: 0.8"/>
     </g>
     <g id="line2d_20">
      <g>
       <use xlink:href="#m3a517d4527" x="58.449375" y="19.668338" style="stroke: #000000; stroke-width: 1.2"/>
      </g>
     </g>
     <g id="text_14">
      <!-- 1.0 -->
      <g transform="translate(26.685 24.987244) scale(0.14 -0.14)">
       <defs>
        <path id="DejaVuSerif-31" d="M 909 0 
L 909 331 
L 1722 331 
L 1722 4213 
L 781 3603 
L 781 4013 
L 1919 4750 
L 2350 4750 
L 2350 331 
L 3163 331 
L 3163 0 
L 909 0 
z
" transform="scale(0.015625)"/>
       </defs>
       <use xlink:href="#DejaVuSerif-31"/>
       <use xlink:href="#DejaVuSerif-2e" transform="translate(63.623047 0)"/>
       <use xlink:href="#DejaVuSerif-30" transform="translate(95.410156 0)"/>
      </g>
     </g>
    </g>
    <g id="text_15">
     <!-- Precision -->
     <g transform="translate(19.3575 194.432551) rotate(-90) scale(0.16 -0.16)">
      <use xlink:href="#DejaVuSerif-50"/>
      <use xlink:href="#DejaVuSerif-72" transform="translate(67.285156 0)"/>
      <use xlink:href="#DejaVuSerif-65" transform="translate(115.087891 0)"/>
      <use xlink:href="#DejaVuSerif-63" transform="translate(174.267578 0)"/>
      <use xlink:href="#DejaVuSerif-69" transform="translate(230.273438 0)"/>
      <use xlink:href="#DejaVuSerif-73" transform="translate(262.255859 0)"/>
      <use xlink:href="#DejaVuSerif-69" transform="translate(313.574219 0)"/>
      <use xlink:href="#DejaVuSerif-6f" transform="translate(345.556641 0)"/>
      <use xlink:href="#DejaVuSerif-6e" transform="translate(405.761719 0)"/>
     </g>
    </g>
   </g>
   <g id="LineCollection_1">
    <path d="M 119.692763 249.584483 
L 119.692763 80.015092 
" clip-path="url(#pf6b36adc43)" style="fill: none; stroke: #000000; stroke-width: 1.5"/>
    <path d="M 229.055957 269.03509 
L 229.055957 104.951767 
" clip-path="url(#pf6b36adc43)" style="fill: none; stroke: #000000; stroke-width: 1.5"/>
    <path d="M 338.419151 221.904774 
L 338.419151 68.793588 
" clip-path="url(#pf6b36adc43)" style="fill: none; stroke: #000000; stroke-width: 1.5"/>
    <path d="M 447.782344 171.283323 
L 447.782344 19.668338 
" clip-path="url(#pf6b36adc43)" style="fill: none; stroke: #000000; stroke-width: 1.5"/>
    <path d="M 557.145538 269.03509 
L 557.145538 85.999894 
" clip-path="url(#pf6b36adc43)" style="fill: none; stroke: #000000; stroke-width: 1.5"/>
    <path d="M 666.508732 251.579417 
L 666.508732 58.070817 
" clip-path="url(#pf6b36adc43)" style="fill: none; stroke: #000000; stroke-width: 1.5"/>
    <path d="M 775.871925 268.037623 
L 775.871925 121.908706 
" clip-path="url(#pf6b36adc43)" style="fill: none; stroke: #000000; stroke-width: 1.5"/>
    <path d="M 885.235119 246.093349 
L 885.235119 75.52649 
" clip-path="url(#pf6b36adc43)" style="fill: none; stroke: #000000; stroke-width: 1.5"/>
   </g>
   <g id="line2d_21">
    <defs>
     <path id="m653ec9f436" d="M 4 0 
L -4 -0 
" style="stroke: #000000"/>
    </defs>
    <g clip-path="url(#pf6b36adc43)">
     <use xlink:href="#m653ec9f436" x="119.692763" y="249.584483" style="stroke: #000000"/>
     <use xlink:href="#m653ec9f436" x="229.055957" y="269.03509" style="stroke: #000000"/>
     <use xlink:href="#m653ec9f436" x="338.419151" y="221.904774" style="stroke: #000000"/>
     <use xlink:href="#m653ec9f436" x="447.782344" y="171.283323" style="stroke: #000000"/>
     <use xlink:href="#m653ec9f436" x="557.145538" y="269.03509" style="stroke: #000000"/>
     <use xlink:href="#m653ec9f436" x="666.508732" y="251.579417" style="stroke: #000000"/>
     <use xlink:href="#m653ec9f436" x="775.871925" y="268.037623" style="stroke: #000000"/>
     <use xlink:href="#m653ec9f436" x="885.235119" y="246.093349" style="stroke: #000000"/>
    </g>
   </g>
   <g id="line2d_22">
    <g clip-path="url(#pf6b36adc43)">
     <use xlink:href="#m653ec9f436" x="119.692763" y="80.015092" style="stroke: #000000"/>
     <use xlink:href="#m653ec9f436" x="229.055957" y="104.951767" style="stroke: #000000"/>
     <use xlink:href="#m653ec9f436" x="338.419151" y="68.793588" style="stroke: #000000"/>
     <use xlink:href="#m653ec9f436" x="447.782344" y="19.668338" style="stroke: #000000"/>
     <use xlink:href="#m653ec9f436" x="557.145538" y="85.999894" style="stroke: #000000"/>
     <use xlink:href="#m653ec9f436" x="666.508732" y="58.070817" style="stroke: #000000"/>
     <use xlink:href="#m653ec9f436" x="775.871925" y="121.908706" style="stroke: #000000"/>
     <use xlink:href="#m653ec9f436" x="885.235119" y="75.52649" style="stroke: #000000"/>
    </g>
   </g>
   <g id="LineCollection_2">
    <path d="M 157.969881 128.392242 
L 157.969881 19.668338 
" clip-path="url(#pf6b36adc43)" style="fill: none; stroke: #000000; stroke-width: 1.5"/>
    <path d="M 267.333075 56.075883 
L 267.333075 19.668338 
" clip-path="url(#pf6b36adc43)" style="fill: none; stroke: #000000; stroke-width: 1.5"/>
    <path d="M 376.696268 81.261925 
L 376.696268 19.668338 
" clip-path="url(#pf6b36adc43)" style="fill: none; stroke: #000000; stroke-width: 1.5"/>
    <path d="M 486.059462 57.07335 
L 486.059462 19.668338 
" clip-path="url(#pf6b36adc43)" style="fill: none; stroke: #000000; stroke-width: 1.5"/>
    <path d="M 595.422656 23.408839 
L 595.422656 19.668338 
" clip-path="url(#pf6b36adc43)" style="fill: none; stroke: #000000; stroke-width: 1.5"/>
    <path d="M 704.785849 166.794722 
L 704.785849 19.668338 
" clip-path="url(#pf6b36adc43)" style="fill: none; stroke: #000000; stroke-width: 1.5"/>
    <path d="M 814.149043 123.15554 
L 814.149043 19.668338 
" clip-path="url(#pf6b36adc43)" style="fill: none; stroke: #000000; stroke-width: 1.5"/>
    <path d="M 923.512237 90.737862 
L 923.512237 19.668338 
" clip-path="url(#pf6b36adc43)" style="fill: none; stroke: #000000; stroke-width: 1.5"/>
   </g>
   <g id="line2d_23">
    <g clip-path="url(#pf6b36adc43)">
     <use xlink:href="#m653ec9f436" x="157.969881" y="128.392242" style="stroke: #000000"/>
     <use xlink:href="#m653ec9f436" x="267.333075" y="56.075883" style="stroke: #000000"/>
     <use xlink:href="#m653ec9f436" x="376.696268" y="81.261925" style="stroke: #000000"/>
     <use xlink:href="#m653ec9f436" x="486.059462" y="57.07335" style="stroke: #000000"/>
     <use xlink:href="#m653ec9f436" x="595.422656" y="23.408839" style="stroke: #000000"/>
     <use xlink:href="#m653ec9f436" x="704.785849" y="166.794722" style="stroke: #000000"/>
     <use xlink:href="#m653ec9f436" x="814.149043" y="123.15554" style="stroke: #000000"/>
     <use xlink:href="#m653ec9f436" x="923.512237" y="90.737862" style="stroke: #000000"/>
    </g>
   </g>
   <g id="line2d_24">
    <g clip-path="url(#pf6b36adc43)">
     <use xlink:href="#m653ec9f436" x="157.969881" y="19.668338" style="stroke: #000000"/>
     <use xlink:href="#m653ec9f436" x="267.333075" y="19.668338" style="stroke: #000000"/>
     <use xlink:href="#m653ec9f436" x="376.696268" y="19.668338" style="stroke: #000000"/>
     <use xlink:href="#m653ec9f436" x="486.059462" y="19.668338" style="stroke: #000000"/>
     <use xlink:href="#m653ec9f436" x="595.422656" y="19.668338" style="stroke: #000000"/>
     <use xlink:href="#m653ec9f436" x="704.785849" y="19.668338" style="stroke: #000000"/>
     <use xlink:href="#m653ec9f436" x="814.149043" y="19.668338" style="stroke: #000000"/>
     <use xlink:href="#m653ec9f436" x="923.512237" y="19.668338" style="stroke: #000000"/>
    </g>
   </g>
   <g id="patch_19">
    <path d="M 58.449375 306.440103 
L 58.449375 7.2 
" style="fill: none; stroke: #000000; stroke-width: 1.2; stroke-linejoin: miter; stroke-linecap: square"/>
   </g>
   <g id="patch_20">
    <path d="M 984.755625 306.440103 
L 984.755625 7.2 
" style="fill: none; stroke: #000000; stroke-width: 1.2; stroke-linejoin: miter; stroke-linecap: square"/>
   </g>
   <g id="patch_21">
    <path d="M 58.449375 306.440103 
L 984.755625 306.440103 
" style="fill: none; stroke: #000000; stroke-width: 1.2; stroke-linejoin: miter; stroke-linecap: square"/>
   </g>
   <g id="patch_22">
    <path d="M 58.449375 7.2 
L 984.755625 7.2 
" style="fill: none; stroke: #000000; stroke-width: 1.2; stroke-linejoin: miter; stroke-linecap: square"/>
   </g>
   <g id="text_16">
    <!-- 0.42 -->
    <g transform="translate(109.673232 283.354686) scale(0.09 -0.09)">
     <use xlink:href="#DejaVuSerif-30"/>
     <use xlink:href="#DejaVuSerif-2e" transform="translate(63.623047 0)"/>
     <use xlink:href="#DejaVuSerif-34" transform="translate(95.410156 0)"/>
     <use xlink:href="#DejaVuSerif-32" transform="translate(159.033203 0)"/>
    </g>
    <!-- ± 0.34 -->
    <g transform="translate(104.472217 293.432718) scale(0.09 -0.09)">
     <defs>
      <path id="DejaVuSerif-b1" d="M 2931 4013 
L 2931 2791 
L 4684 2791 
L 4684 2284 
L 2931 2284 
L 2931 1063 
L 2431 1063 
L 2431 2284 
L 678 2284 
L 678 2791 
L 2431 2791 
L 2431 4013 
L 2931 4013 
z
M 678 500 
L 4684 500 
L 4684 0 
L 678 0 
L 678 500 
z
" transform="scale(0.015625)"/>
      <path id="DejaVuSerif-33" d="M 622 4469 
Q 988 4606 1323 4678 
Q 1659 4750 1953 4750 
Q 2638 4750 3022 4454 
Q 3406 4159 3406 3634 
Q 3406 3213 3140 2930 
Q 2875 2647 2388 2547 
Q 2963 2466 3280 2130 
Q 3597 1794 3597 1259 
Q 3597 606 3158 257 
Q 2719 -91 1894 -91 
Q 1528 -91 1179 -12 
Q 831 66 488 225 
L 488 1131 
L 838 1131 
Q 869 681 1141 450 
Q 1413 219 1906 219 
Q 2384 219 2661 495 
Q 2938 772 2938 1253 
Q 2938 1803 2653 2086 
Q 2369 2369 1819 2369 
L 1522 2369 
L 1522 2688 
L 1678 2688 
Q 2225 2688 2498 2914 
Q 2772 3141 2772 3597 
Q 2772 4006 2547 4223 
Q 2322 4441 1900 4441 
Q 1478 4441 1245 4241 
Q 1013 4041 972 3647 
L 622 3647 
L 622 4469 
z
" transform="scale(0.015625)"/>
     </defs>
     <use xlink:href="#DejaVuSerif-b1"/>
     <use xlink:href="#DejaVuSerif-20" transform="translate(83.789062 0)"/>
     <use xlink:href="#DejaVuSerif-30" transform="translate(115.576172 0)"/>
     <use xlink:href="#DejaVuSerif-2e" transform="translate(179.199219 0)"/>
     <use xlink:href="#DejaVuSerif-33" transform="translate(210.986328 0)"/>
     <use xlink:href="#DejaVuSerif-34" transform="translate(274.609375 0)"/>
    </g>
   </g>
   <g id="text_17">
    <!-- 0.32 -->
    <g transform="translate(219.036426 283.354686) scale(0.09 -0.09)">
     <use xlink:href="#DejaVuSerif-30"/>
     <use xlink:href="#DejaVuSerif-2e" transform="translate(63.623047 0)"/>
     <use xlink:href="#DejaVuSerif-33" transform="translate(95.410156 0)"/>
     <use xlink:href="#DejaVuSerif-32" transform="translate(159.033203 0)"/>
    </g>
    <!-- ± 0.34 -->
    <g transform="translate(213.83541 293.432718) scale(0.09 -0.09)">
     <use xlink:href="#DejaVuSerif-b1"/>
     <use xlink:href="#DejaVuSerif-20" transform="translate(83.789062 0)"/>
     <use xlink:href="#DejaVuSerif-30" transform="translate(115.576172 0)"/>
     <use xlink:href="#DejaVuSerif-2e" transform="translate(179.199219 0)"/>
     <use xlink:href="#DejaVuSerif-33" transform="translate(210.986328 0)"/>
     <use xlink:href="#DejaVuSerif-34" transform="translate(274.609375 0)"/>
    </g>
   </g>
   <g id="text_18">
    <!-- 0.50 -->
    <g transform="translate(328.399619 283.354686) scale(0.09 -0.09)">
     <defs>
      <path id="DejaVuSerif-35" d="M 3219 4666 
L 3219 4153 
L 1081 4153 
L 1081 2816 
Q 1244 2928 1461 2984 
Q 1678 3041 1947 3041 
Q 2703 3041 3140 2622 
Q 3578 2203 3578 1478 
Q 3578 738 3136 323 
Q 2694 -91 1894 -91 
Q 1572 -91 1234 -12 
Q 897 66 544 225 
L 544 1131 
L 897 1131 
Q 925 688 1179 453 
Q 1434 219 1894 219 
Q 2388 219 2653 544 
Q 2919 869 2919 1478 
Q 2919 2084 2655 2407 
Q 2391 2731 1894 2731 
Q 1613 2731 1398 2631 
Q 1184 2531 1019 2322 
L 750 2322 
L 750 4666 
L 3219 4666 
z
" transform="scale(0.015625)"/>
     </defs>
     <use xlink:href="#DejaVuSerif-30"/>
     <use xlink:href="#DejaVuSerif-2e" transform="translate(63.623047 0)"/>
     <use xlink:href="#DejaVuSerif-35" transform="translate(95.410156 0)"/>
     <use xlink:href="#DejaVuSerif-30" transform="translate(159.033203 0)"/>
    </g>
    <!-- ± 0.31 -->
    <g transform="translate(323.198604 293.432718) scale(0.09 -0.09)">
     <use xlink:href="#DejaVuSerif-b1"/>
     <use xlink:href="#DejaVuSerif-20" transform="translate(83.789062 0)"/>
     <use xlink:href="#DejaVuSerif-30" transform="translate(115.576172 0)"/>
     <use xlink:href="#DejaVuSerif-2e" transform="translate(179.199219 0)"/>
     <use xlink:href="#DejaVuSerif-33" transform="translate(210.986328 0)"/>
     <use xlink:href="#DejaVuSerif-31" transform="translate(274.609375 0)"/>
    </g>
   </g>
   <g id="text_19">
    <!-- 0.72 -->
    <g transform="translate(437.762813 283.354686) scale(0.09 -0.09)">
     <defs>
      <path id="DejaVuSerif-37" d="M 3609 4347 
L 1784 0 
L 1319 0 
L 3059 4153 
L 903 4153 
L 903 3578 
L 538 3578 
L 538 4666 
L 3609 4666 
L 3609 4347 
z
" transform="scale(0.015625)"/>
     </defs>
     <use xlink:href="#DejaVuSerif-30"/>
     <use xlink:href="#DejaVuSerif-2e" transform="translate(63.623047 0)"/>
     <use xlink:href="#DejaVuSerif-37" transform="translate(95.410156 0)"/>
     <use xlink:href="#DejaVuSerif-32" transform="translate(159.033203 0)"/>
    </g>
    <!-- ± 0.33 -->
    <g transform="translate(432.561797 293.432718) scale(0.09 -0.09)">
     <use xlink:href="#DejaVuSerif-b1"/>
     <use xlink:href="#DejaVuSerif-20" transform="translate(83.789062 0)"/>
     <use xlink:href="#DejaVuSerif-30" transform="translate(115.576172 0)"/>
     <use xlink:href="#DejaVuSerif-2e" transform="translate(179.199219 0)"/>
     <use xlink:href="#DejaVuSerif-33" transform="translate(210.986328 0)"/>
     <use xlink:href="#DejaVuSerif-33" transform="translate(274.609375 0)"/>
    </g>
   </g>
   <g id="text_20">
    <!-- 0.33 -->
    <g transform="translate(547.126007 283.354686) scale(0.09 -0.09)">
     <use xlink:href="#DejaVuSerif-30"/>
     <use xlink:href="#DejaVuSerif-2e" transform="translate(63.623047 0)"/>
     <use xlink:href="#DejaVuSerif-33" transform="translate(95.410156 0)"/>
     <use xlink:href="#DejaVuSerif-33" transform="translate(159.033203 0)"/>
    </g>
    <!-- ± 0.40 -->
    <g transform="translate(541.924991 293.432718) scale(0.09 -0.09)">
     <use xlink:href="#DejaVuSerif-b1"/>
     <use xlink:href="#DejaVuSerif-20" transform="translate(83.789062 0)"/>
     <use xlink:href="#DejaVuSerif-30" transform="translate(115.576172 0)"/>
     <use xlink:href="#DejaVuSerif-2e" transform="translate(179.199219 0)"/>
     <use xlink:href="#DejaVuSerif-34" transform="translate(210.986328 0)"/>
     <use xlink:href="#DejaVuSerif-30" transform="translate(274.609375 0)"/>
    </g>
   </g>
   <g id="text_21">
    <!-- 0.46 -->
    <g transform="translate(656.4892 283.354686) scale(0.09 -0.09)">
     <use xlink:href="#DejaVuSerif-30"/>
     <use xlink:href="#DejaVuSerif-2e" transform="translate(63.623047 0)"/>
     <use xlink:href="#DejaVuSerif-34" transform="translate(95.410156 0)"/>
     <use xlink:href="#DejaVuSerif-36" transform="translate(159.033203 0)"/>
    </g>
    <!-- ± 0.39 -->
    <g transform="translate(651.288185 293.432718) scale(0.09 -0.09)">
     <defs>
      <path id="DejaVuSerif-39" d="M 2994 2091 
Q 2784 1856 2512 1740 
Q 2241 1625 1900 1625 
Q 1206 1625 804 2044 
Q 403 2463 403 3188 
Q 403 3897 839 4323 
Q 1275 4750 2003 4750 
Q 2794 4750 3217 4161 
Q 3641 3572 3641 2478 
Q 3641 1253 3137 581 
Q 2634 -91 1722 -91 
Q 1475 -91 1203 -44 
Q 931 3 647 97 
L 647 872 
L 997 872 
Q 1038 556 1241 387 
Q 1444 219 1784 219 
Q 2391 219 2687 676 
Q 2984 1134 2994 2091 
z
M 1978 4441 
Q 1534 4441 1298 4117 
Q 1063 3794 1063 3188 
Q 1063 2581 1298 2256 
Q 1534 1931 1978 1931 
Q 2422 1931 2658 2245 
Q 2894 2559 2894 3150 
Q 2894 3772 2656 4106 
Q 2419 4441 1978 4441 
z
" transform="scale(0.015625)"/>
     </defs>
     <use xlink:href="#DejaVuSerif-b1"/>
     <use xlink:href="#DejaVuSerif-20" transform="translate(83.789062 0)"/>
     <use xlink:href="#DejaVuSerif-30" transform="translate(115.576172 0)"/>
     <use xlink:href="#DejaVuSerif-2e" transform="translate(179.199219 0)"/>
     <use xlink:href="#DejaVuSerif-33" transform="translate(210.986328 0)"/>
     <use xlink:href="#DejaVuSerif-39" transform="translate(274.609375 0)"/>
    </g>
   </g>
   <g id="text_22">
    <!-- 0.30 -->
    <g transform="translate(765.852394 283.354686) scale(0.09 -0.09)">
     <use xlink:href="#DejaVuSerif-30"/>
     <use xlink:href="#DejaVuSerif-2e" transform="translate(63.623047 0)"/>
     <use xlink:href="#DejaVuSerif-33" transform="translate(95.410156 0)"/>
     <use xlink:href="#DejaVuSerif-30" transform="translate(159.033203 0)"/>
    </g>
    <!-- ± 0.29 -->
    <g transform="translate(760.651378 293.432718) scale(0.09 -0.09)">
     <use xlink:href="#DejaVuSerif-b1"/>
     <use xlink:href="#DejaVuSerif-20" transform="translate(83.789062 0)"/>
     <use xlink:href="#DejaVuSerif-30" transform="translate(115.576172 0)"/>
     <use xlink:href="#DejaVuSerif-2e" transform="translate(179.199219 0)"/>
     <use xlink:href="#DejaVuSerif-32" transform="translate(210.986328 0)"/>
     <use xlink:href="#DejaVuSerif-39" transform="translate(274.609375 0)"/>
    </g>
   </g>
   <g id="text_23">
    <!-- 0.43 -->
    <g transform="translate(875.215588 283.354686) scale(0.09 -0.09)">
     <use xlink:href="#DejaVuSerif-30"/>
     <use xlink:href="#DejaVuSerif-2e" transform="translate(63.623047 0)"/>
     <use xlink:href="#DejaVuSerif-34" transform="translate(95.410156 0)"/>
     <use xlink:href="#DejaVuSerif-33" transform="translate(159.033203 0)"/>
    </g>
    <!-- ± 0.34 -->
    <g transform="translate(870.014572 293.432718) scale(0.09 -0.09)">
     <use xlink:href="#DejaVuSerif-b1"/>
     <use xlink:href="#DejaVuSerif-20" transform="translate(83.789062 0)"/>
     <use xlink:href="#DejaVuSerif-30" transform="translate(115.576172 0)"/>
     <use xlink:href="#DejaVuSerif-2e" transform="translate(179.199219 0)"/>
     <use xlink:href="#DejaVuSerif-33" transform="translate(210.986328 0)"/>
     <use xlink:href="#DejaVuSerif-34" transform="translate(274.609375 0)"/>
    </g>
   </g>
   <g id="text_24">
    <!-- 0.85 -->
    <g transform="translate(147.95035 283.354686) scale(0.09 -0.09)">
     <use xlink:href="#DejaVuSerif-30"/>
     <use xlink:href="#DejaVuSerif-2e" transform="translate(63.623047 0)"/>
     <use xlink:href="#DejaVuSerif-38" transform="translate(95.410156 0)"/>
     <use xlink:href="#DejaVuSerif-35" transform="translate(159.033203 0)"/>
    </g>
    <!-- ± 0.28 -->
    <g transform="translate(142.749334 293.432718) scale(0.09 -0.09)">
     <use xlink:href="#DejaVuSerif-b1"/>
     <use xlink:href="#DejaVuSerif-20" transform="translate(83.789062 0)"/>
     <use xlink:href="#DejaVuSerif-30" transform="translate(115.576172 0)"/>
     <use xlink:href="#DejaVuSerif-2e" transform="translate(179.199219 0)"/>
     <use xlink:href="#DejaVuSerif-32" transform="translate(210.986328 0)"/>
     <use xlink:href="#DejaVuSerif-38" transform="translate(274.609375 0)"/>
    </g>
   </g>
   <g id="text_25">
    <!-- 0.97 -->
    <g transform="translate(257.313544 283.354686) scale(0.09 -0.09)">
     <use xlink:href="#DejaVuSerif-30"/>
     <use xlink:href="#DejaVuSerif-2e" transform="translate(63.623047 0)"/>
     <use xlink:href="#DejaVuSerif-39" transform="translate(95.410156 0)"/>
     <use xlink:href="#DejaVuSerif-37" transform="translate(159.033203 0)"/>
    </g>
    <!-- ± 0.12 -->
    <g transform="translate(252.112528 293.432718) scale(0.09 -0.09)">
     <use xlink:href="#DejaVuSerif-b1"/>
     <use xlink:href="#DejaVuSerif-20" transform="translate(83.789062 0)"/>
     <use xlink:href="#DejaVuSerif-30" transform="translate(115.576172 0)"/>
     <use xlink:href="#DejaVuSerif-2e" transform="translate(179.199219 0)"/>
     <use xlink:href="#DejaVuSerif-31" transform="translate(210.986328 0)"/>
     <use xlink:href="#DejaVuSerif-32" transform="translate(274.609375 0)"/>
    </g>
   </g>
   <g id="text_26">
    <!-- 0.91 -->
    <g transform="translate(366.676737 283.354686) scale(0.09 -0.09)">
     <use xlink:href="#DejaVuSerif-30"/>
     <use xlink:href="#DejaVuSerif-2e" transform="translate(63.623047 0)"/>
     <use xlink:href="#DejaVuSerif-39" transform="translate(95.410156 0)"/>
     <use xlink:href="#DejaVuSerif-31" transform="translate(159.033203 0)"/>
    </g>
    <!-- ± 0.15 -->
    <g transform="translate(361.475722 293.432718) scale(0.09 -0.09)">
     <use xlink:href="#DejaVuSerif-b1"/>
     <use xlink:href="#DejaVuSerif-20" transform="translate(83.789062 0)"/>
     <use xlink:href="#DejaVuSerif-30" transform="translate(115.576172 0)"/>
     <use xlink:href="#DejaVuSerif-2e" transform="translate(179.199219 0)"/>
     <use xlink:href="#DejaVuSerif-31" transform="translate(210.986328 0)"/>
     <use xlink:href="#DejaVuSerif-35" transform="translate(274.609375 0)"/>
    </g>
   </g>
   <g id="text_27">
    <!-- 0.95 -->
    <g transform="translate(476.039931 283.354686) scale(0.09 -0.09)">
     <use xlink:href="#DejaVuSerif-30"/>
     <use xlink:href="#DejaVuSerif-2e" transform="translate(63.623047 0)"/>
     <use xlink:href="#DejaVuSerif-39" transform="translate(95.410156 0)"/>
     <use xlink:href="#DejaVuSerif-35" transform="translate(159.033203 0)"/>
    </g>
    <!-- ± 0.10 -->
    <g transform="translate(470.838915 293.432718) scale(0.09 -0.09)">
     <use xlink:href="#DejaVuSerif-b1"/>
     <use xlink:href="#DejaVuSerif-20" transform="translate(83.789062 0)"/>
     <use xlink:href="#DejaVuSerif-30" transform="translate(115.576172 0)"/>
     <use xlink:href="#DejaVuSerif-2e" transform="translate(179.199219 0)"/>
     <use xlink:href="#DejaVuSerif-31" transform="translate(210.986328 0)"/>
     <use xlink:href="#DejaVuSerif-30" transform="translate(274.609375 0)"/>
    </g>
   </g>
   <g id="text_28">
    <!-- 1.00 -->
    <g transform="translate(585.403124 283.354686) scale(0.09 -0.09)">
     <use xlink:href="#DejaVuSerif-31"/>
     <use xlink:href="#DejaVuSerif-2e" transform="translate(63.623047 0)"/>
     <use xlink:href="#DejaVuSerif-30" transform="translate(95.410156 0)"/>
     <use xlink:href="#DejaVuSerif-30" transform="translate(159.033203 0)"/>
    </g>
    <!-- ± 0.01 -->
    <g transform="translate(580.202109 293.432718) scale(0.09 -0.09)">
     <use xlink:href="#DejaVuSerif-b1"/>
     <use xlink:href="#DejaVuSerif-20" transform="translate(83.789062 0)"/>
     <use xlink:href="#DejaVuSerif-30" transform="translate(115.576172 0)"/>
     <use xlink:href="#DejaVuSerif-2e" transform="translate(179.199219 0)"/>
     <use xlink:href="#DejaVuSerif-30" transform="translate(210.986328 0)"/>
     <use xlink:href="#DejaVuSerif-31" transform="translate(274.609375 0)"/>
    </g>
   </g>
   <g id="text_29">
    <!-- 0.76 -->
    <g transform="translate(694.766318 283.354686) scale(0.09 -0.09)">
     <use xlink:href="#DejaVuSerif-30"/>
     <use xlink:href="#DejaVuSerif-2e" transform="translate(63.623047 0)"/>
     <use xlink:href="#DejaVuSerif-37" transform="translate(95.410156 0)"/>
     <use xlink:href="#DejaVuSerif-36" transform="translate(159.033203 0)"/>
    </g>
    <!-- ± 0.35 -->
    <g transform="translate(689.565302 293.432718) scale(0.09 -0.09)">
     <use xlink:href="#DejaVuSerif-b1"/>
     <use xlink:href="#DejaVuSerif-20" transform="translate(83.789062 0)"/>
     <use xlink:href="#DejaVuSerif-30" transform="translate(115.576172 0)"/>
     <use xlink:href="#DejaVuSerif-2e" transform="translate(179.199219 0)"/>
     <use xlink:href="#DejaVuSerif-33" transform="translate(210.986328 0)"/>
     <use xlink:href="#DejaVuSerif-35" transform="translate(274.609375 0)"/>
    </g>
   </g>
   <g id="text_30">
    <!-- 0.87 -->
    <g transform="translate(804.129512 283.354686) scale(0.09 -0.09)">
     <use xlink:href="#DejaVuSerif-30"/>
     <use xlink:href="#DejaVuSerif-2e" transform="translate(63.623047 0)"/>
     <use xlink:href="#DejaVuSerif-38" transform="translate(95.410156 0)"/>
     <use xlink:href="#DejaVuSerif-37" transform="translate(159.033203 0)"/>
    </g>
    <!-- ± 0.28 -->
    <g transform="translate(798.928496 293.432718) scale(0.09 -0.09)">
     <use xlink:href="#DejaVuSerif-b1"/>
     <use xlink:href="#DejaVuSerif-20" transform="translate(83.789062 0)"/>
     <use xlink:href="#DejaVuSerif-30" transform="translate(115.576172 0)"/>
     <use xlink:href="#DejaVuSerif-2e" transform="translate(179.199219 0)"/>
     <use xlink:href="#DejaVuSerif-32" transform="translate(210.986328 0)"/>
     <use xlink:href="#DejaVuSerif-38" transform="translate(274.609375 0)"/>
    </g>
   </g>
   <g id="text_31">
    <!-- 0.90 -->
    <g transform="translate(913.492705 283.354686) scale(0.09 -0.09)">
     <use xlink:href="#DejaVuSerif-30"/>
     <use xlink:href="#DejaVuSerif-2e" transform="translate(63.623047 0)"/>
     <use xlink:href="#DejaVuSerif-39" transform="translate(95.410156 0)"/>
     <use xlink:href="#DejaVuSerif-30" transform="translate(159.033203 0)"/>
    </g>
    <!-- ± 0.19 -->
    <g transform="translate(908.29169 293.432718) scale(0.09 -0.09)">
     <use xlink:href="#DejaVuSerif-b1"/>
     <use xlink:href="#DejaVuSerif-20" transform="translate(83.789062 0)"/>
     <use xlink:href="#DejaVuSerif-30" transform="translate(115.576172 0)"/>
     <use xlink:href="#DejaVuSerif-2e" transform="translate(179.199219 0)"/>
     <use xlink:href="#DejaVuSerif-31" transform="translate(210.986328 0)"/>
     <use xlink:href="#DejaVuSerif-39" transform="translate(274.609375 0)"/>
    </g>
   </g>
   <g id="legend_1">
    <g id="patch_23">
     <path d="M 66.849375 52.0275 
L 146.11875 52.0275 
Q 148.51875 52.0275 148.51875 49.6275 
L 148.51875 15.6 
Q 148.51875 13.2 146.11875 13.2 
L 66.849375 13.2 
Q 64.449375 13.2 64.449375 15.6 
L 64.449375 49.6275 
Q 64.449375 52.0275 66.849375 52.0275 
z
" style="fill: #ffffff; opacity: 0.8; stroke: #cccccc; stroke-linejoin: miter"/>
    </g>
    <g id="patch_24">
     <path d="M 69.249375 27.118125 
L 93.249375 27.118125 
L 93.249375 18.718125 
L 69.249375 18.718125 
z
" style="fill: #4c72b0"/>
    </g>
    <g id="text_32">
     <!-- LLM -->
     <g transform="translate(102.849375 27.118125) scale(0.12 -0.12)">
      <defs>
       <path id="DejaVuSerif-4c" d="M 353 0 
L 353 331 
L 947 331 
L 947 4331 
L 353 4331 
L 353 4666 
L 2175 4666 
L 2175 4331 
L 1581 4331 
L 1581 384 
L 3713 384 
L 3713 1166 
L 4097 1166 
L 4097 0 
L 353 0 
z
" transform="scale(0.015625)"/>
      </defs>
      <use xlink:href="#DejaVuSerif-4c"/>
      <use xlink:href="#DejaVuSerif-4c" transform="translate(66.40625 0)"/>
      <use xlink:href="#DejaVuSerif-4d" transform="translate(132.8125 0)"/>
     </g>
    </g>
    <g id="patch_25">
     <path d="M 69.249375 44.731875 
L 93.249375 44.731875 
L 93.249375 36.331875 
L 69.249375 36.331875 
z
" style="fill: #dd8452"/>
    </g>
    <g id="text_33">
     <!-- Expert -->
     <g transform="translate(102.849375 44.731875) scale(0.12 -0.12)">
      <defs>
       <path id="DejaVuSerif-45" d="M 353 0 
L 353 331 
L 947 331 
L 947 4331 
L 353 4331 
L 353 4666 
L 4109 4666 
L 4109 3628 
L 3725 3628 
L 3725 4281 
L 1581 4281 
L 1581 2719 
L 3109 2719 
L 3109 3303 
L 3494 3303 
L 3494 1753 
L 3109 1753 
L 3109 2338 
L 1581 2338 
L 1581 384 
L 3775 384 
L 3775 1038 
L 4159 1038 
L 4159 0 
L 353 0 
z
" transform="scale(0.015625)"/>
       <path id="DejaVuSerif-78" d="M 1863 2028 
L 2559 2988 
L 2113 2988 
L 2113 3322 
L 3391 3322 
L 3391 2988 
L 2950 2988 
L 2059 1759 
L 3097 331 
L 3531 331 
L 3531 0 
L 1997 0 
L 1997 331 
L 2419 331 
L 1697 1325 
L 972 331 
L 1403 331 
L 1403 0 
L 141 0 
L 141 331 
L 581 331 
L 1497 1594 
L 488 2988 
L 78 2988 
L 78 3322 
L 1563 3322 
L 1563 2988 
L 1166 2988 
L 1863 2028 
z
" transform="scale(0.015625)"/>
      </defs>
      <use xlink:href="#DejaVuSerif-45"/>
      <use xlink:href="#DejaVuSerif-78" transform="translate(72.998047 0)"/>
      <use xlink:href="#DejaVuSerif-70" transform="translate(129.394531 0)"/>
      <use xlink:href="#DejaVuSerif-65" transform="translate(193.408203 0)"/>
      <use xlink:href="#DejaVuSerif-72" transform="translate(252.587891 0)"/>
      <use xlink:href="#DejaVuSerif-74" transform="translate(300.390625 0)"/>
     </g>
    </g>
   </g>
  </g>
 </g>
 <defs>
  <clipPath id="pf6b36adc43">
   <rect x="58.449375" y="7.2" width="926.30625" height="299.240103"/>
  </clipPath>
 </defs>
</svg>
